<svg xmlns="http://www.w3.org/2000/svg" xmlns:xlink="http://www.w3.org/1999/xlink" width="375" viewBox="0 0 375 375" height="375" version="1.0"><defs><clipPath id="a"><path d="M 37.5 32.476562 L 347.25 32.476562 L 347.25 342.226562 L 37.5 342.226562 Z M 37.5 32.476562"/></clipPath><g id="b"><path d="M 118.03125 2.625 C 97.039062 2.625 78.726562 -1.789062 63.09375 -10.625 C 47.457031 -19.46875 35.460938 -31.90625 27.109375 -47.9375 C 18.753906 -63.96875 14.578125 -82.664062 14.578125 -104.03125 C 14.578125 -125.207031 18.753906 -143.8125 27.109375 -159.84375 C 35.460938 -175.875 47.457031 -188.257812 63.09375 -197 C 78.726562 -205.738281 97.039062 -210.109375 118.03125 -210.109375 C 131.820312 -210.109375 144.984375 -208.019531 157.515625 -203.84375 C 170.046875 -199.664062 180.296875 -193.789062 188.265625 -186.21875 L 173.984375 -153.578125 C 164.648438 -160.578125 155.5625 -165.675781 146.71875 -168.875 C 137.882812 -172.082031 128.613281 -173.6875 118.90625 -173.6875 C 100.25 -173.6875 85.96875 -167.757812 76.0625 -155.90625 C 66.15625 -144.0625 61.203125 -126.769531 61.203125 -104.03125 C 61.203125 -81.113281 66.15625 -63.679688 76.0625 -51.734375 C 85.96875 -39.785156 100.25 -33.8125 118.90625 -33.8125 C 128.613281 -33.8125 137.882812 -35.410156 146.71875 -38.609375 C 155.5625 -41.816406 164.648438 -46.914062 173.984375 -53.90625 L 188.265625 -21.28125 C 180.296875 -13.695312 170.046875 -7.816406 157.515625 -3.640625 C 144.984375 0.535156 131.820312 2.625 118.03125 2.625 Z M 118.03125 2.625"/></g></defs><path fill="#FFF" d="M-37.5 -37.5H412.5V412.5H-37.5z"/><path fill="#FFF" d="M-37.5 -37.5H412.5V412.5H-37.5z"/><path fill="#042F4B" d="M-37.5 -37.5H412.5V412.5H-37.5z"/><g clip-path="url(#a)"><path fill="#FDF3E6" d="M 340.796875 342.226562 L 43.953125 342.226562 C 40.390625 342.226562 37.5 339.324219 37.5 335.773438 L 37.5 38.929688 C 37.5 35.382812 40.390625 32.476562 43.953125 32.476562 L 340.796875 32.476562 C 344.347656 32.476562 347.25 35.382812 347.25 38.929688 L 347.25 335.773438 C 347.25 339.324219 344.347656 342.226562 340.796875 342.226562 Z M 50.40625 329.320312 L 334.34375 329.320312 L 334.34375 45.382812 L 50.40625 45.382812 Z M 50.40625 329.320312"/></g><g fill="#FDF3E6"><use x="77.359" y="287.583" xmlns:xlink="http://www.w3.org/1999/xlink" xlink:href="#b" xlink:type="simple" xlink:actuate="onLoad" xlink:show="embed"/></g></svg>